<svg xmlns="http://www.w3.org/2000/svg" viewBox="0 0 250 250" role="img" aria-label="MRVL custom-silicon monogram">
  <defs>
    <linearGradient id="mrvlbg" x1="0" y1="0" x2="1" y2="1">
      <stop offset="0" stop-color="#0b2421"/>
      <stop offset="1" stop-color="#05100f"/>
    </linearGradient>
    <linearGradient id="mrvlm" x1="0" y1="0" x2="1" y2="1">
      <stop offset="0" stop-color="#5eead4"/>
      <stop offset="1" stop-color="#2dd4bf"/>
    </linearGradient>
  </defs>
  <rect x="6" y="6" width="238" height="238" rx="46" fill="url(#mrvlbg)" stroke="#1c4d45" stroke-width="3"/>
  <!-- die pins -->
  <g fill="none" stroke="#1f6b5e" stroke-width="5" stroke-linecap="round">
    <line x1="40" y1="74" x2="22" y2="74"/><line x1="40" y1="125" x2="22" y2="125"/><line x1="40" y1="176" x2="22" y2="176"/>
    <line x1="210" y1="74" x2="228" y2="74"/><line x1="210" y1="125" x2="228" y2="125"/><line x1="210" y1="176" x2="228" y2="176"/>
  </g>
  <!-- M monogram -->
  <path d="M58 182 L58 70 L92 70 L125 134 L158 70 L192 70 L192 182 L162 182 L162 120 L135 168 L115 168 L88 120 L88 182 Z"
        fill="url(#mrvlm)" stroke="#7af0dd" stroke-width="2" stroke-linejoin="round"/>
  <!-- signal nodes -->
  <circle cx="125" cy="134" r="9" fill="#0b2421" stroke="#5eead4" stroke-width="4"/>
</svg>
